PathFileType	4	(X/Y/Z)	36_1_rein_26_p0_0-313_filt_butterworth.trc
DataRate	CameraRate	NumFrames	NumMarkers	Units	OrigDataRate	OrigDataStartFrame	OrigNumFrames
58.0	58.0	4	27	m	58.0	78	313
Frame#	Time	RHip			RKnee			RAnkle			RBigToe			RSmallToe			RHeel			LHip			LKnee			LAnkle			LBigToe			LSmallToe			LHeel			Neck			Head			Nose			RShoulder			RElbow			RWrist			RThumb			RIndex			RPinky			LShoulder			LElbow			LWrist			LThumb			LIndex			LPinky			
		X1	Y1	Z1	X2	Y2	Z2	X3	Y3	Z3	X4	Y4	Z4	X5	Y5	Z5	X6	Y6	Z6	X7	Y7	Z7	X8	Y8	Z8	X9	Y9	Z9	X10	Y10	Z10	X11	Y11	Z11	X12	Y12	Z12	X13	Y13	Z13	X14	Y14	Z14	X15	Y15	Z15	X16	Y16	Z16	X17	Y17	Z17	X18	Y18	Z18	X19	Y19	Z19	X20	Y20	Z20	X21	Y21	Z21	X22	Y22	Z22	X23	Y23	Z23	X24	Y24	Z24	X25	Y25	Z25	X26	Y26	Z26	X27	Y27	Z27	
78	1.3448275862068966	0.2802639368352866	0.480483884961013	-0.0785492335809936	0.32675959439989477	0.5799786208573278	0.3331776758191256	0.3515044568716499	0.7226069369869194	0.7224507304661745	0.34174748350968365	0.5165518082798237	0.7467221971790401	0.40927414116517213	0.5339149609112971	0.7396794936660762	0.3360081723401584	0.8225387037441552	0.7855626472061792	0.08607021215724306	0.45171068166567535	-0.06490427381406655	0.10255294732069617	0.5808246315144354	0.3647663689939987	0.13073359974459714	0.6878301295065429	0.7525422966447153	0.15453549969208963	0.5286115563502823	0.7795372984295832	0.11242112938923955	0.5666859822811241	0.7886908486038318	0.13943012796831078	0.746454128920144	0.7985272469191211	0.1478038597543991	0.39931741915697466	-0.5302457341105626	0.137388108345064	0.23028353140712415	-0.7560291091277834	0.15009167516931918	0.21483236960811172	-0.5962831960295821	0.2988929344382996	0.46128983455778266	-0.5110745452164392	0.3255433767421638	0.32435274414320625	-0.2992554080338096	0.22837747387850926	0.29133547725022624	-0.41634921358463245	0.16233429460311183	0.25052164719293885	-0.49887168871263604	0.1640805100231243	0.21386736876581786	-0.5036426587143773	0.16966730189822732	0.21000796353063111	-0.4489027435455472	0.008361470126348773	0.4547943306534251	-0.48494097055641755	-0.01088612123326028	0.39700198201810244	-0.2538557151321055	0.10762849187280607	0.2919702868950451	-0.36003419181796215	0.141103323115787	0.2876001661979137	-0.4372491840102702	0.1499240709263908	0.24680769690312243	-0.4551826341599924	0.17786373819956974	0.24290812066315143	-0.4217847895655179
79	1.362068965517241	0.2802624577261278	0.48035744013609843	-0.07862548281757956	0.32676675901410707	0.5795383526018228	0.33352928079618305	0.3519969475656079	0.7225530327367695	0.7223869422141094	0.3417926408365746	0.5178011805177278	0.7456907250026256	0.4094988906233926	0.5334319965086937	0.7397970014188391	0.3361531179248918	0.8227126879791982	0.7859002731235963	0.08739071432727703	0.44812787841795965	-0.06492708296178337	0.10258186292062323	0.5808159214811823	0.3647104374613255	0.12916005068637243	0.6827773274581893	0.7495754720493041	0.15388855001256715	0.5278813348016794	0.7790503520234994	0.11164755961563604	0.5627209498352835	0.7864037952611723	0.139413919722905	0.7461653741422083	0.798388636419711	0.14786102803307036	0.3992291995473317	-0.530233497531771	0.13728977296301512	0.23114264195774306	-0.7548645365994178	0.1502170994297738	0.2149558680366166	-0.5953622425465052	0.29893810377946284	0.4611676718221155	-0.5110763982373667	0.32584617728781656	0.32441175851392495	-0.29715319180320826	0.22844903576655956	0.2913053503376386	-0.41608206180095014	0.15988718574521313	0.24592560443507322	-0.49836539565814775	0.16126057337126065	0.2086440123691834	-0.5035833891798671	0.16707537678878323	0.203999387163709	-0.44892595888159487	0.008587004890783208	0.4548767905043618	-0.48397334862226177	-0.011178379153275738	0.39550472469737297	-0.25449388118201666	0.10790671983624338	0.292092544809336	-0.3603777172741518	0.14045338633900237	0.2874041187843213	-0.4390460497611633	0.14958150157483227	0.24788472575221857	-0.45839377763947164	0.17562037944774983	0.2396940971623798	-0.4217654825666154
80	1.3793103448275863	0.28037093927211687	0.4800071049113198	-0.07880541610653824	0.32633568192586143	0.5795867301569796	0.33412130991285754	0.35382462279484594	0.7218019835335889	0.7217953310193758	0.3423082085949218	0.5222065564988047	0.7464827747600101	0.4097054049312314	0.5330345604800577	0.7398061842062285	0.33629315833185863	0.8229273512530477	0.7861781387280549	0.08904068838212562	0.4435541682694699	-0.06494314952892584	0.10258381898754378	0.5807736110672285	0.36457348317746424	0.12790403033091846	0.678725290400037	0.7468279092494523	0.15397239870313403	0.5272569396217393	0.7773897240599773	0.11096311738541781	0.5575804729057202	0.7846955050952825	0.13938348180007268	0.7459266163213583	0.7983106349369373	0.14798638448901932	0.3993405767170492	-0.5289466674002913	0.13739953208903186	0.23161758200817348	-0.754013667688804	0.15099596204432386	0.21558605628118324	-0.5942572118408108	0.2989521957721184	0.4611623682035069	-0.51106042856076	0.32618234638769095	0.3243680329648918	-0.2947468063296639	0.22860390760229543	0.29139504908469593	-0.4150847403416365	0.15828016981339127	0.24154503528894206	-0.49804370837884315	0.16084079915190638	0.20433924243944235	-0.5034198933208809	0.16580757150058403	0.19988644464014715	-0.4488975842307202	0.008713694921067185	0.45483795663567067	-0.48360465572930766	-0.011876692413329195	0.39215762840564905	-0.25514354699610653	0.10889910352682555	0.29159485306188443	-0.36139472103617437	0.14002020611141458	0.2840484592539368	-0.4404846651118487	0.14995490160553954	0.2469320149744958	-0.46154395870244597	0.17398450896349235	0.23754516798384764	-0.42176649974796
81	1.396551724137931	0.28035073035902824	0.47991896810403945	-0.07882734003715729	0.32524371188085655	0.5809600558238377	0.3348246690473709	0.35664866400381734	0.7207727374015869	0.7209901567632989	0.34305915118777003	0.5289193801262374	0.7489301589124738	0.4098657765696749	0.5331091014437876	0.7398239737654486	0.33632667925905085	0.8229907350589343	0.7860938123312755	0.09022305265479352	0.44019447173064835	-0.06490410066439228	0.10256188720378268	0.5807367200384774	0.3643981504900169	0.1273495051852226	0.6769945585011957	0.7452829321528092	0.1545103239699838	0.5272304669059292	0.7758600654629912	0.11071821555709485	0.5538756825179747	0.7841313167724381	0.13934198600532344	0.7458442819978327	0.7982885961668769	0.14837424165493626	0.3997022459141489	-0.5262451175557662	0.13787614624002692	0.2306890904396997	-0.7537520906207015	0.15188006688286204	0.21629293179959114	-0.5930805895220086	0.29894877970230527	0.4614017730305735	-0.5110169166102217	0.32647930408434694	0.3242652323508934	-0.2926402204826229	0.22886348039778853	0.29150352692465087	-0.4133503897184331	0.15814834752135434	0.23847081380422336	-0.49776296333988435	0.1621973878181468	0.201646094344737	-0.5029334941654552	0.1659113366320826	0.1977101080450339	-0.4487634696472834	0.008781924348163028	0.4547761838943164	-0.48333764669881185	-0.012802743092772358	0.3878618329840211	-0.25533793051385845	0.11005995587229375	0.28954046272787615	-0.3627938942741643	0.14004688880575875	0.2758592572649722	-0.441759422215733	0.15134893110905456	0.24370623383376544	-0.4639883531479973	0.173454970190989	0.23401209953693303	-0.422451748790756
